# xmcd
#
# Track frame offsets:
#	150
#	12632
#	26166
#	39780
#	52399
#	67100
#	76523
#	88231
#	101708
#	115024
#	128697
#	141329
#	151166
#	163229
#	176375
#	189567
#	201507
#	215926
#	228645
#	239590
#	250731
#	261331
#
# Disc length: 3641 seconds
#
# Revision: 1
# Processed by: cddbd v1.5.2PL0 Copyright (c) Steve Scherf et al.
# Submitted via: audiograbber 1.83.01
#
DISCID=480e3716
DTITLE=Lightnin' Slim - I'm A Rolling Stone: Singles 1954-1962 CD 1
DYEAR=1954
DGENRE=Blues
TTITLE0=Rock Me Mama
TTITLE1=Bad Luck
TTITLE2=I Can't Live Happy
TTITLE3=New Orleans Bound
TTITLE4=Ethel Mae
TTITLE5=Bugger Bugger Boy
TTITLE6=Lightnin' Slim Boogie
TTITLE7=Bad Feeling
TTITLE8=Lightnin' Blues
TTITLE9=I Can't Be Successfule
TTITLE10=Sugar Plum
TTITLE11=Just Made Twenty-One
TTITLE12=Goin' Home
TTITLE13=Wonderin' And Goin'
TTITLE14=Bad Luck And Trouble
TTITLE15=Have Your Way
TTITLE16=Mean Ole Lonesome Train
TTITLE17=I'm Grown
TTITLE18=I'm A Rollin' Stone
TTITLE19=Love Me Mama
TTITLE20=Hoodoo Blues
TTITLE21=It's Mighty Crazy
EXTD=
EXTT0=
EXTT1=
EXTT2=
EXTT3=
EXTT4=
EXTT5=
EXTT6=
EXTT7=
EXTT8=
EXTT9=
EXTT10=
EXTT11=
EXTT12=
EXTT13=
EXTT14=
EXTT15=
EXTT16=
EXTT17=
EXTT18=
EXTT19=
EXTT20=
EXTT21=
PLAYORDER=
